Big Fat Gypsy Gangster 2011 DVDRip XViD DTRG
 
http://www.imdb.com/title/tt1582196/
 
http://www.postimg.com/image/48000/photo-47624.jpg

Format                           : AVI
Format/Info                      : Audio Video Interleave
File size                        : 1.53 GiB
Duration                         : 1h 28mn
Overall bit rate                 : 2 470 Kbps
Writing library                  : VirtualDub build 32842/release

Video
ID                               : 0
Format                           : MPEG-4 Visual
Format profile                   : Advanced Simple@L5
Format settings, BVOP            : 2
Format settings, QPel            : No
Format settings, GMC             : No warppoints
Format settings, Matrix          : Default (H.263)
Muxing mode                      : Packed bitstream
Codec ID                         : XVID
Codec ID/Hint                    : XviD
Duration                         : 1h 28mn
Bit rate                         : 2 012 Kbps
Width                            : 714 pixels
Height                           : 400 pixels
Display aspect ratio             : 16:9
Frame rate                       : 25.000 fps
Color space                      : YUV
Chroma subsampling               : 4:2:0
Bit depth                        : 8 bits
Scan type                        : Progressive
Compression mode                 : Lossy
Bits/(Pixel*Frame)               : 0.282
Stream size                      : 1.25 GiB (81%)
Writing library                  : XviD 64

Audio
ID                               : 1
Format                           : AC-3
Format/Info                      : Audio Coding 3
Mode extension                   : CM (complete main)
Codec ID                         : 2000
Duration                         : 1h 28mn
Bit rate mode                    : Constant
Bit rate                         : 448 Kbps
Channel(s)                       : 6 channels
Channel positions                : Front: L C R, Side: L R, LFE
Sampling rate                    : 48.0 KHz
Bit depth                        : 16 bits
Compression mode                 : Lossy
Stream size                      : 285 MiB (18%)
Alignment                        : Aligned on interleaves
Interleave, duration             : 40 ms (1.00 video frame)
Interleave, preload duration     : 512 ms

Screens: 
http://images.oneddl.com/images/mh8iw5gf2zww8sfls6yk.png 
http://images.oneddl.com/images/d4gsyb87dx23zcthc0ol.png 
http://images.oneddl.com/images/c01c0cd84a68jt1qz42c.png 
http://images.oneddl.com/images/x87if6ddnc2lsjfo1ok.png

Sample: 
http://www.uploadking.com/XDJ25WTDMC

 ~ Seed 4 others,Others would seed 4 u ~
         Be a Gentleman!!

    ______            ______   _______    
   (  __  \ |\     /|(  __  \ (  ____ \   
   | (  \  )| )   ( || (  \  )| (    \/   
   | |   ) || |   | || |   ) || (__       
   | |   | || |   | || |   | ||  __)      
   | |   ) || |   | || |   ) || (         
 _ | (__/  )| (___) || (__/  )| (____/\ _ 
(_)(______/ (_______)(______/ (_______/(_)


Any comments would b appreciated.
Do rate the torrent quality by giving a +1/-1.

You can check my other uploads here: 
http://thepiratebay.org/user/.Dude./

A simple THANKS goes a long way... :-)
It would just take a few seconds to post a thanks and wud would appreciate me to upload even more gr8 torrents.
